<?xml version="1.0" encoding="UTF-8"?>
<svg width="18px" height="18px" viewBox="0 0 18 18" version="1.1" xmlns="http://www.w3.org/2000/svg" xmlns:xlink="http://www.w3.org/1999/xlink">
    <!-- Generator: Sketch 44 (41411) - http://www.bohemiancoding.com/sketch -->
    <title>question</title>
    <desc>Created with Sketch.</desc>
    <defs></defs>
    <g id="Page-1" stroke="none" stroke-width="1" fill="none" fill-rule="evenodd">
        <g id="question" transform="translate(-118.000000, -136.000000)">
            <g transform="translate(118.000000, 136.000000)">
                <g>
                    <circle id="Oval" fill="#E8E8E8" cx="9" cy="9" r="9"></circle>
                    <path d="M8.97826087,13.0608574 C8.52202564,13.0608574 8.15217391,12.6910056 8.15217391,12.2347704 C8.15217391,11.7785352 8.52202564,11.4086834 8.97826087,11.4086834 C9.4344961,11.4086834 9.80434783,11.7785352 9.80434783,12.2347704 C9.80434783,12.6910056 9.4344961,13.0608574 8.97826087,13.0608574 Z M7.65217391,7.36520518 C7.65217391,7.66535994 7.40885041,7.90868345 7.10869565,7.90868345 C6.8085409,7.90868345 6.56521739,7.66535994 6.56521739,7.36520518 C6.56521739,6.0111942 7.69358358,4.91808946 9.03381344,4.97403498 C10.3027687,5.00223398 11.3412321,6.04069734 11.3693557,7.30663613 C11.3969066,8.29846919 10.8010357,9.20838012 9.91867646,9.578206 C9.65270451,9.69789338 9.5,9.91104342 9.5,10.1478139 C9.5,10.4479686 9.25667649,10.6912921 8.95652174,10.6912921 C8.65636698,10.6912921 8.41304348,10.4479686 8.41304348,10.1478139 C8.41304348,9.46157709 8.8336008,8.87454917 9.48547463,8.58140389 C9.96939018,8.37847156 10.2978219,7.87694752 10.2827428,7.33380124 C10.2674636,6.64623477 9.69723128,6.07600247 8.99911383,6.0603862 C8.26831691,6.02993633 7.65217391,6.62682486 7.65217391,7.36520518 Z" id="Combined-Shape" fill="#878787" fill-rule="nonzero"></path>
                </g>
            </g>
        </g>
    </g>
</svg>